%
M48
M72
T01C0.0394
T02C0.0866
T03C0.0433
T04C0.0591
T05C0.0354
T06C0.0276
T07C0.0315
T08C0.0236
T09C0.0787
%
T01
X250Y343
X250Y443
X250Y543
X250Y643
X250Y743
X250Y843
X337Y1160
X337Y1238
X337Y1317
X338Y1393
X338Y1469
X338Y1545
X450Y1488
X450Y1407
X450Y1331
X450Y1251
X546Y1289
X546Y1212
X546Y1369
X546Y1449
X504Y1887
X404Y1887
X304Y1887
X553Y2030
X667Y1991
X767Y1991
X556Y2224
X408Y2188
X409Y2102
X405Y2283
X339Y2414
X339Y2514
X339Y2614
X339Y2714
X339Y2814
X1780Y2838
X1880Y2838
X1980Y2838
X2080Y2838
X2080Y2981
X1980Y2981
X1880Y2981
X1780Y2981
X1703Y893
X1603Y893
X1570Y798
X2684Y259
X2784Y259
X2884Y259
X2984Y259
X3084Y259
X3184Y259
T02
X350Y1053
X350Y1647
T03
X554Y424
X654Y424
X754Y424
X854Y424
X954Y424
X1054Y424
X1154Y424
X1254Y424
X1354Y424
X1454Y424
X1454Y324
X1354Y324
X1254Y324
X1154Y324
X1054Y324
X954Y324
X854Y324
X754Y324
X654Y324
X554Y324
T04
X3121Y1872
X3471Y1708
X3158Y1113
X3509Y853
X3523Y621
X3398Y621
X3164Y602
X3466Y2721
X3459Y2858
X3519Y2986
X3389Y2984
X3254Y2986
X3121Y2984
X2992Y2985
X2850Y2985
X2675Y2986
X2522Y2987
T05
X2154Y2593
X2344Y2474
X2422Y2515
X2588Y2203
X1960Y2458
X1919Y2559
X1758Y2424
X1653Y2895
X1567Y2896
X1563Y2993
X1653Y2993
X1423Y2971
X1325Y2982
X1230Y2982
X1129Y2982
X1030Y2981
X933Y2980
X835Y2980
X738Y2980
X639Y2980
X535Y2969
X445Y2969
X353Y2970
X262Y2971
X236Y2814
X236Y2714
X237Y2615
X236Y2515
X236Y2415
X297Y2292
X297Y2194
X297Y2092
X706Y2188
X799Y2189
X894Y2189
X837Y2419
X499Y2502
X577Y1736
X1402Y1852
X1849Y1040
X2052Y327
X3312Y247
X3406Y248
X3495Y248
T06
X2569Y1141
X2510Y1149
X2454Y1173
X2401Y1143
X2291Y1151
X2227Y1139
X2105Y1243
X2106Y1325
X2012Y1023
X2186Y872
X2254Y872
X2001Y523
X2324Y509
X2983Y1337
X2998Y1409
X3022Y1484
X3056Y1546
X2998Y1618
X2963Y1567
X2904Y1504
X2831Y1474
X2555Y1555
X2553Y1608
X2342Y1602
X2001Y1680
X1929Y1921
X2482Y2017
X2542Y1992
X2811Y1737
X1032Y2781
X540Y571
T07
X2159Y675
X2241Y675
X2555Y1237
X3065Y387
X1582Y2005
T08
X1645Y2007
X1591Y2104
X1478Y2229
X1335Y2151
X1280Y2088
X1298Y1894
X1504Y1940
X1524Y1883
X1565Y1771
X1614Y1680
X1669Y1705
X1741Y1757
X1884Y1808
X1905Y1736
X2031Y1809
X2086Y1809
X2144Y1810
X2051Y1738
X2137Y1617
X1898Y1544
X1844Y1628
X1795Y1607
X1728Y1583
X1680Y1548
X1636Y1508
X1728Y1454
X1774Y1423
X1841Y1326
X1742Y1300
X1686Y1247
X1662Y1194
X1644Y1145
X1616Y1092
X1614Y1041
X1575Y961
X1448Y1103
X1448Y1190
X1436Y1241
X1557Y1303
X1580Y1349
X1652Y1368
X1586Y1245
X1768Y1162
X1823Y1170
X1933Y1168
X1938Y1283
X1907Y1459
X1559Y1606
X1408Y1604
X1407Y1660
X1357Y1518
X1285Y1394
X1252Y1327
X1211Y1222
X1128Y1199
X1081Y1237
X1243Y1109
X1128Y1047
X1237Y901
X1325Y851
X1370Y933
X1309Y735
X1103Y823
X1041Y608
X844Y835
X765Y737
X568Y639
X649Y951
X940Y1418
X1018Y1482
X1017Y1539
X960Y1629
X967Y1757
X971Y1820
X1047Y1811
X1016Y1888
X1017Y1968
X719Y1711
X645Y1695
X665Y1617
X750Y1539
X1198Y1469
X1772Y1012
X2034Y946
X2129Y840
X2094Y782
X2269Y928
X2359Y937
X2509Y922
X2547Y855
X2686Y997
X2645Y1061
X2744Y1055
X2746Y1143
X2778Y1187
X2750Y1234
X2854Y1282
X2917Y1296
X2900Y1350
X2925Y1231
X2895Y1161
X2982Y1163
X3069Y1116
X2989Y1047
X2898Y992
X2855Y953
X2814Y911
X2804Y859
X2800Y789
X2811Y660
X2717Y635
X2800Y535
X2838Y427
X2763Y425
X2909Y581
X2954Y530
X2932Y773
X3221Y934
X3170Y1021
X3362Y1150
X3356Y1244
X3463Y1393
X3540Y1225
X3545Y1138
X3229Y833
X2881Y1047
X3121Y1220
X3303Y1531
X3133Y1736
X2971Y1802
X2923Y1742
X2867Y1760
X2856Y1675
X2785Y1662
X2738Y1711
X2730Y1655
X2706Y1606
X2615Y1708
X2638Y1767
X2642Y1830
X2577Y1886
X2509Y1874
X2528Y1924
X2431Y1960
X2356Y2001
X2407Y2046
X2259Y1987
X2167Y1982
X2174Y1932
X2177Y2048
X2178Y2100
X2318Y2180
X2389Y2299
X2442Y2333
X2330Y2403
X2181Y2457
X1901Y2270
X1889Y2468
X1803Y2658
X1644Y2453
X1628Y2402
X1565Y2455
X1472Y2520
X1458Y2640
X1353Y2678
X1262Y2752
X1179Y2720
X1097Y2739
X941Y2576
X941Y2468
X1126Y2454
X1145Y2510
X1303Y2443
X1287Y2368
X1359Y2368
X1298Y2283
X1157Y2350
X574Y2726
X464Y2649
X1797Y1947
X1823Y1895
X1823Y2014
X2303Y1901
X2428Y1773
X2527Y1805
X2719Y2030
X2785Y2084
X2785Y2134
X2785Y2185
X2827Y2257
X2810Y2330
X2759Y2322
X2648Y2466
X2609Y2505
X2647Y2544
X2649Y2599
X2537Y2600
X2508Y2660
X2380Y2732
X2150Y2930
X2114Y2708
X2762Y2646
X2880Y2698
X3041Y2697
X3185Y2699
X3334Y2776
X3331Y2502
X3391Y2366
X3166Y2401
X3165Y2474
X3116Y2301
X3025Y2304
X2937Y2391
X3171Y2202
X3180Y2132
X3258Y2152
X3325Y2073
X3205Y1962
X3176Y2023
X3095Y2098
X2924Y2036
X2866Y2073
X2923Y1949
X2961Y1678
X2897Y1615
X3407Y1857
X2572Y2131
X2888Y2907
X1717Y751
X1540Y641
X1676Y475
X1679Y379
X1913Y535
X1926Y671
X1992Y350
X2330Y324
X2401Y453
X2586Y223
T09
X244Y213
M30
