G75*
G70*
%OFA0B0*%
%FSLAX24Y24*%
%IPPOS*%
%LPD*%
%AMOC8*
5,1,8,0,0,1.08239X$1,22.5*
%
%ADD10C,0.0080*%
%ADD11C,0.0040*%
%ADD12C,0.0000*%
%ADD13C,0.0050*%
D10*
X001381Y000917D02*
X001381Y030838D01*
X036263Y030838D01*
X036263Y000917D01*
X036341Y000917D01*
X036263Y000917D02*
X001381Y000917D01*
D11*
X013403Y012425D02*
X013710Y012425D01*
X013403Y012732D01*
X013403Y012809D01*
X013480Y012885D01*
X013633Y012885D01*
X013710Y012809D01*
X013863Y012809D02*
X014170Y012502D01*
X014094Y012425D01*
X013940Y012425D01*
X013863Y012502D01*
X013863Y012809D01*
X013940Y012885D01*
X014094Y012885D01*
X014170Y012809D01*
X014170Y012502D01*
X014324Y012425D02*
X014631Y012425D01*
X014784Y012425D02*
X014937Y012578D01*
X014861Y012578D02*
X015091Y012578D01*
X015091Y012425D02*
X015091Y012885D01*
X014861Y012885D01*
X014784Y012809D01*
X014784Y012655D01*
X014861Y012578D01*
X014631Y012732D02*
X014477Y012885D01*
X014477Y012425D01*
X013945Y014054D02*
X013639Y014054D01*
X013562Y014130D01*
X013562Y014284D01*
X013639Y014360D01*
X013562Y014514D02*
X013562Y014821D01*
X013562Y014667D02*
X014022Y014667D01*
X013869Y014514D01*
X013945Y014360D02*
X014022Y014284D01*
X014022Y014130D01*
X013945Y014054D01*
X013945Y014974D02*
X013639Y014974D01*
X013945Y015281D01*
X013639Y015281D01*
X013562Y015204D01*
X013562Y015051D01*
X013639Y014974D01*
X013945Y014974D02*
X014022Y015051D01*
X014022Y015204D01*
X013945Y015281D01*
X013945Y015435D02*
X013639Y015435D01*
X013945Y015741D01*
X013639Y015741D01*
X013562Y015665D01*
X013562Y015511D01*
X013639Y015435D01*
X013945Y015435D02*
X014022Y015511D01*
X014022Y015665D01*
X013945Y015741D01*
X011499Y017086D02*
X011499Y017547D01*
X011268Y017547D01*
X011192Y017470D01*
X011192Y017317D01*
X011268Y017240D01*
X011499Y017240D01*
X011345Y017240D02*
X011192Y017086D01*
X011038Y017086D02*
X010731Y017086D01*
X010885Y017086D02*
X010885Y017547D01*
X011038Y017393D01*
X010578Y017470D02*
X010578Y017163D01*
X010271Y017470D01*
X010271Y017163D01*
X010348Y017086D01*
X010501Y017086D01*
X010578Y017163D01*
X010578Y017470D02*
X010501Y017547D01*
X010348Y017547D01*
X010271Y017470D01*
X010118Y017393D02*
X009964Y017547D01*
X009964Y017086D01*
X009811Y017086D02*
X010118Y017086D01*
X015952Y019917D02*
X016259Y019917D01*
X016106Y019917D02*
X016106Y020378D01*
X016259Y020224D01*
X016413Y020301D02*
X016413Y019994D01*
X016489Y019917D01*
X016643Y019917D01*
X016720Y019994D01*
X016413Y020301D01*
X016489Y020378D01*
X016643Y020378D01*
X016720Y020301D01*
X016720Y019994D01*
X016873Y019917D02*
X017180Y019917D01*
X017027Y019917D02*
X017027Y020378D01*
X017180Y020224D01*
X017333Y020301D02*
X017410Y020378D01*
X017564Y020378D01*
X017640Y020301D01*
X017640Y019994D01*
X017564Y019917D01*
X017410Y019917D01*
X017333Y019994D01*
X017439Y020819D02*
X016978Y020819D01*
X017132Y020819D02*
X017132Y021049D01*
X017209Y021126D01*
X017362Y021126D01*
X017439Y021049D01*
X017439Y020819D01*
X017132Y020972D02*
X016978Y021126D01*
X016978Y021279D02*
X016978Y021586D01*
X016978Y021433D02*
X017439Y021433D01*
X017285Y021279D01*
X017362Y021740D02*
X017055Y021740D01*
X017362Y022047D01*
X017055Y022047D01*
X016978Y021970D01*
X016978Y021816D01*
X017055Y021740D01*
X017362Y021740D02*
X017439Y021816D01*
X017439Y021970D01*
X017362Y022047D01*
X017362Y022200D02*
X017439Y022277D01*
X017439Y022430D01*
X017362Y022507D01*
X017285Y022507D01*
X017209Y022430D01*
X017132Y022507D01*
X017055Y022507D01*
X016978Y022430D01*
X016978Y022277D01*
X017055Y022200D01*
X017209Y022354D02*
X017209Y022430D01*
X015931Y022605D02*
X015777Y022605D01*
X015854Y022605D02*
X015854Y023065D01*
X015931Y023065D02*
X015777Y023065D01*
X015624Y022989D02*
X015624Y022682D01*
X015547Y022605D01*
X015393Y022605D01*
X015317Y022682D01*
X015163Y022605D02*
X014856Y022605D01*
X015010Y022605D02*
X015010Y023065D01*
X015163Y022912D01*
X015317Y022989D02*
X015393Y023065D01*
X015547Y023065D01*
X015624Y022989D01*
X014703Y022989D02*
X014703Y022682D01*
X014396Y022989D01*
X014396Y022682D01*
X014473Y022605D01*
X014626Y022605D01*
X014703Y022682D01*
X014703Y022989D02*
X014626Y023065D01*
X014473Y023065D01*
X014396Y022989D01*
X014243Y022989D02*
X014166Y023065D01*
X014012Y023065D01*
X013936Y022989D01*
X013936Y022912D01*
X014243Y022605D01*
X013936Y022605D01*
X017494Y025841D02*
X017494Y025994D01*
X017494Y025917D02*
X017954Y025917D01*
X017954Y025841D02*
X017954Y025994D01*
X017878Y026148D02*
X017571Y026148D01*
X017494Y026224D01*
X017494Y026378D01*
X017571Y026454D01*
X017494Y026608D02*
X017494Y026915D01*
X017494Y026761D02*
X017954Y026761D01*
X017801Y026608D01*
X017878Y026454D02*
X017954Y026378D01*
X017954Y026224D01*
X017878Y026148D01*
X017878Y027068D02*
X017571Y027068D01*
X017878Y027375D01*
X017571Y027375D01*
X017494Y027298D01*
X017494Y027145D01*
X017571Y027068D01*
X017878Y027068D02*
X017954Y027145D01*
X017954Y027298D01*
X017878Y027375D01*
X017878Y027529D02*
X017954Y027605D01*
X017954Y027759D01*
X017878Y027836D01*
X017801Y027836D01*
X017724Y027759D01*
X017648Y027836D01*
X017571Y027836D01*
X017494Y027759D01*
X017494Y027605D01*
X017571Y027529D01*
X017724Y027682D02*
X017724Y027759D01*
X024108Y022207D02*
X024108Y022053D01*
X024185Y021977D01*
X024491Y022284D01*
X024185Y022284D01*
X024108Y022207D01*
X024185Y021977D02*
X024491Y021977D01*
X024568Y022053D01*
X024568Y022207D01*
X024491Y022284D01*
X024108Y021823D02*
X024108Y021516D01*
X024108Y021363D02*
X024108Y021056D01*
X024108Y021209D02*
X024568Y021209D01*
X024415Y021056D01*
X024491Y020903D02*
X024568Y020826D01*
X024568Y020672D01*
X024491Y020596D01*
X024185Y020596D01*
X024108Y020672D01*
X024108Y020826D01*
X024185Y020903D01*
X024415Y021516D02*
X024568Y021670D01*
X024108Y021670D01*
X027190Y023446D02*
X027190Y023906D01*
X027420Y023676D01*
X027113Y023676D01*
X027573Y023523D02*
X027650Y023446D01*
X027803Y023446D01*
X027880Y023523D01*
X027573Y023829D01*
X027573Y023523D01*
X027573Y023829D02*
X027650Y023906D01*
X027803Y023906D01*
X027880Y023829D01*
X027880Y023523D01*
X028034Y023446D02*
X028340Y023446D01*
X028187Y023446D02*
X028187Y023906D01*
X028340Y023753D01*
X028494Y023829D02*
X028571Y023906D01*
X028724Y023906D01*
X028801Y023829D01*
X028801Y023523D01*
X028724Y023446D01*
X028571Y023446D01*
X028494Y023523D01*
X028954Y023446D02*
X029108Y023446D01*
X029031Y023446D02*
X029031Y023906D01*
X029108Y023906D02*
X028954Y023906D01*
X029634Y023827D02*
X029634Y023751D01*
X029941Y023444D01*
X029634Y023444D01*
X029591Y023047D02*
X029437Y023047D01*
X029361Y022970D01*
X029668Y022663D01*
X029591Y022587D01*
X029437Y022587D01*
X029361Y022663D01*
X029361Y022970D01*
X029207Y022970D02*
X029207Y022663D01*
X028900Y022970D01*
X028900Y022663D01*
X028977Y022587D01*
X029130Y022587D01*
X029207Y022663D01*
X029207Y022970D02*
X029130Y023047D01*
X028977Y023047D01*
X028900Y022970D01*
X029591Y023047D02*
X029668Y022970D01*
X029668Y022663D01*
X029821Y022587D02*
X030128Y022587D01*
X030281Y022587D02*
X030281Y022894D01*
X030435Y023047D01*
X030588Y022894D01*
X030588Y022587D01*
X030742Y022587D02*
X030895Y022740D01*
X030818Y022740D02*
X031049Y022740D01*
X031049Y022587D02*
X031049Y023047D01*
X030818Y023047D01*
X030742Y022970D01*
X030742Y022817D01*
X030818Y022740D01*
X030588Y022817D02*
X030281Y022817D01*
X030128Y022894D02*
X029974Y023047D01*
X029974Y022587D01*
X030248Y023444D02*
X030248Y023904D01*
X030401Y023904D02*
X030094Y023904D01*
X029941Y023827D02*
X029864Y023904D01*
X029711Y023904D01*
X029634Y023827D01*
X028407Y024585D02*
X028330Y024508D01*
X028024Y024508D01*
X027947Y024585D01*
X027947Y024739D01*
X028024Y024815D01*
X027947Y024969D02*
X027947Y025276D01*
X027947Y025429D02*
X027947Y025736D01*
X027947Y025583D02*
X028407Y025583D01*
X028254Y025429D01*
X028407Y025122D02*
X027947Y025122D01*
X028254Y024969D02*
X028407Y025122D01*
X028330Y024815D02*
X028407Y024739D01*
X028407Y024585D01*
X028177Y025889D02*
X028024Y025889D01*
X027947Y025966D01*
X027947Y026120D01*
X028024Y026196D01*
X028100Y026196D01*
X028177Y026120D01*
X028177Y025889D01*
X028330Y026043D01*
X028407Y026196D01*
X031164Y025070D02*
X031471Y025070D01*
X031471Y024840D01*
X031318Y024916D01*
X031241Y024916D01*
X031164Y024840D01*
X031164Y024686D01*
X031241Y024610D01*
X031394Y024610D01*
X031471Y024686D01*
X031625Y024610D02*
X031931Y024610D01*
X031778Y024610D02*
X031778Y025070D01*
X031931Y024916D01*
X032085Y024610D02*
X032392Y024610D01*
X032545Y024610D02*
X032699Y024763D01*
X032622Y024763D02*
X032852Y024763D01*
X032852Y024610D02*
X032852Y025070D01*
X032622Y025070D01*
X032545Y024993D01*
X032545Y024840D01*
X032622Y024763D01*
X032392Y024916D02*
X032238Y025070D01*
X032238Y024610D01*
X032390Y023640D02*
X032313Y023564D01*
X032313Y023487D01*
X032390Y023410D01*
X032313Y023334D01*
X032313Y023257D01*
X032390Y023180D01*
X032543Y023180D01*
X032620Y023257D01*
X032773Y023180D02*
X033080Y023180D01*
X032773Y023487D01*
X032773Y023564D01*
X032850Y023640D01*
X033003Y023640D01*
X033080Y023564D01*
X033387Y023640D02*
X033387Y023180D01*
X033540Y023180D02*
X033234Y023180D01*
X033540Y023487D02*
X033387Y023640D01*
X033694Y023564D02*
X033771Y023640D01*
X033924Y023640D01*
X034001Y023564D01*
X034001Y023257D01*
X033924Y023180D01*
X033771Y023180D01*
X033694Y023257D01*
X032620Y023564D02*
X032543Y023640D01*
X032390Y023640D01*
X032390Y023410D02*
X032466Y023410D01*
X032500Y021435D02*
X032654Y021435D01*
X032730Y021358D01*
X032500Y021435D02*
X032423Y021358D01*
X032423Y021281D01*
X032730Y020974D01*
X032423Y020974D01*
X032270Y021051D02*
X032193Y020974D01*
X032040Y020974D01*
X031963Y021051D01*
X031963Y021204D01*
X032040Y021281D01*
X032116Y021281D01*
X032270Y021204D01*
X032270Y021435D01*
X031963Y021435D01*
X032884Y020974D02*
X033191Y020974D01*
X033037Y020974D02*
X033037Y021435D01*
X033191Y021281D01*
X033344Y021358D02*
X033421Y021435D01*
X033574Y021435D01*
X033651Y021358D01*
X033651Y021051D01*
X033574Y020974D01*
X033421Y020974D01*
X033344Y021051D01*
X033430Y019888D02*
X033353Y019811D01*
X033353Y019657D01*
X033430Y019581D01*
X033660Y019581D01*
X033507Y019581D02*
X033353Y019427D01*
X033200Y019427D02*
X032893Y019427D01*
X033046Y019427D02*
X033046Y019888D01*
X033200Y019734D01*
X033430Y019888D02*
X033660Y019888D01*
X033660Y019427D01*
X033602Y018801D02*
X033602Y018340D01*
X033755Y018340D02*
X033448Y018340D01*
X033295Y018340D02*
X032988Y018340D01*
X033141Y018340D02*
X033141Y018801D01*
X033295Y018647D01*
X033602Y018801D02*
X033755Y018647D01*
X033908Y018570D02*
X033985Y018494D01*
X034215Y018494D01*
X034062Y018494D02*
X033908Y018340D01*
X033908Y018570D02*
X033908Y018724D01*
X033985Y018801D01*
X034215Y018801D01*
X034215Y018340D01*
X035443Y018404D02*
X035904Y018404D01*
X035750Y018251D01*
X035673Y018097D02*
X035597Y018020D01*
X035597Y017790D01*
X035443Y017790D02*
X035904Y017790D01*
X035904Y018020D01*
X035827Y018097D01*
X035673Y018097D01*
X035597Y017944D02*
X035443Y018097D01*
X035443Y018251D02*
X035443Y018558D01*
X035443Y018711D02*
X035750Y019018D01*
X035827Y019018D01*
X035904Y018941D01*
X035904Y018788D01*
X035827Y018711D01*
X035443Y018711D02*
X035443Y019018D01*
X035673Y019171D02*
X035673Y019478D01*
X035443Y019402D02*
X035904Y019402D01*
X035673Y019171D01*
X035600Y019929D02*
X035140Y019929D01*
X035293Y019929D02*
X035293Y020159D01*
X035370Y020235D01*
X035523Y020235D01*
X035600Y020159D01*
X035600Y019929D01*
X035293Y020082D02*
X035140Y020235D01*
X035140Y020389D02*
X035140Y020696D01*
X035140Y020849D02*
X035447Y021156D01*
X035523Y021156D01*
X035600Y021079D01*
X035600Y020926D01*
X035523Y020849D01*
X035600Y020542D02*
X035140Y020542D01*
X035140Y020849D02*
X035140Y021156D01*
X035140Y021310D02*
X035447Y021616D01*
X035523Y021616D01*
X035600Y021540D01*
X035600Y021386D01*
X035523Y021310D01*
X035140Y021310D02*
X035140Y021616D01*
X035346Y021849D02*
X035270Y021926D01*
X035270Y022080D01*
X035346Y022156D01*
X035270Y022310D02*
X035270Y022617D01*
X035270Y022770D02*
X035577Y023077D01*
X035653Y023077D01*
X035730Y023000D01*
X035730Y022847D01*
X035653Y022770D01*
X035730Y022463D02*
X035270Y022463D01*
X035270Y022770D02*
X035270Y023077D01*
X035346Y023230D02*
X035270Y023307D01*
X035270Y023461D01*
X035346Y023537D01*
X035423Y023537D01*
X035500Y023461D01*
X035500Y023307D01*
X035577Y023230D01*
X035653Y023230D01*
X035730Y023307D01*
X035730Y023461D01*
X035653Y023537D01*
X035577Y023537D01*
X035500Y023461D01*
X035500Y023307D02*
X035423Y023230D01*
X035346Y023230D01*
X035193Y023907D02*
X035193Y024138D01*
X035270Y024214D01*
X035423Y024214D01*
X035500Y024138D01*
X035500Y023907D01*
X035040Y023907D01*
X035193Y024061D02*
X035040Y024214D01*
X035040Y024368D02*
X035040Y024675D01*
X035040Y024828D02*
X035347Y025135D01*
X035423Y025135D01*
X035500Y025058D01*
X035500Y024905D01*
X035423Y024828D01*
X035500Y024521D02*
X035040Y024521D01*
X035040Y024828D02*
X035040Y025135D01*
X035040Y025289D02*
X035040Y025595D01*
X035040Y025442D02*
X035500Y025442D01*
X035347Y025289D01*
X035500Y024521D02*
X035347Y024368D01*
X035730Y022463D02*
X035577Y022310D01*
X035653Y022156D02*
X035730Y022080D01*
X035730Y021926D01*
X035653Y021849D01*
X035346Y021849D01*
X035600Y020542D02*
X035447Y020389D01*
X032739Y019734D02*
X032586Y019888D01*
X032586Y019427D01*
X032739Y019427D02*
X032432Y019427D01*
X032279Y019504D02*
X032202Y019427D01*
X032049Y019427D01*
X031972Y019504D01*
X031972Y019581D01*
X032049Y019657D01*
X032279Y019657D01*
X032279Y019504D01*
X032279Y019657D02*
X032126Y019811D01*
X031972Y019888D01*
X030916Y020253D02*
X030839Y020177D01*
X030686Y020177D01*
X030609Y020253D01*
X030456Y020177D02*
X030149Y020177D01*
X030302Y020177D02*
X030302Y020637D01*
X030456Y020483D01*
X030609Y020560D02*
X030686Y020637D01*
X030839Y020637D01*
X030916Y020560D01*
X030916Y020253D01*
X029995Y020177D02*
X029688Y020483D01*
X029688Y020560D01*
X029765Y020637D01*
X029919Y020637D01*
X029995Y020560D01*
X029995Y020177D02*
X029688Y020177D01*
X029535Y020177D02*
X029228Y020177D01*
X029381Y020177D02*
X029381Y020637D01*
X029535Y020483D01*
X028807Y020568D02*
X028500Y020568D01*
X028654Y020568D02*
X028654Y020108D01*
X028347Y020108D02*
X028040Y020108D01*
X028193Y020108D02*
X028193Y020568D01*
X028347Y020415D01*
X028729Y019224D02*
X028652Y019147D01*
X028652Y019070D01*
X028729Y018994D01*
X028882Y018994D01*
X028959Y019070D01*
X028959Y019147D01*
X028882Y019224D01*
X028729Y019224D01*
X028729Y018994D02*
X028652Y018917D01*
X028652Y018840D01*
X028729Y018764D01*
X028882Y018764D01*
X028959Y018840D01*
X028959Y018917D01*
X028882Y018994D01*
X029112Y019147D02*
X029419Y018840D01*
X029342Y018764D01*
X029189Y018764D01*
X029112Y018840D01*
X029112Y019147D01*
X029189Y019224D01*
X029342Y019224D01*
X029419Y019147D01*
X029419Y018840D01*
X029572Y018764D02*
X029879Y018764D01*
X029726Y018764D02*
X029726Y019224D01*
X029879Y019070D01*
X030033Y018994D02*
X030110Y018917D01*
X030340Y018917D01*
X030340Y018764D02*
X030340Y019224D01*
X030110Y019224D01*
X030033Y019147D01*
X030033Y018994D01*
X030186Y018917D02*
X030033Y018764D01*
X029975Y018192D02*
X030205Y017962D01*
X029898Y017962D01*
X029975Y017732D02*
X029975Y018192D01*
X030359Y018116D02*
X030436Y018192D01*
X030589Y018192D01*
X030666Y018116D01*
X030359Y018116D02*
X030359Y018039D01*
X030666Y017732D01*
X030359Y017732D01*
X030819Y017732D02*
X031126Y017732D01*
X030973Y017732D02*
X030973Y018192D01*
X031126Y018039D01*
X031279Y018116D02*
X031356Y018192D01*
X031510Y018192D01*
X031586Y018116D01*
X031586Y017809D01*
X031510Y017732D01*
X031356Y017732D01*
X031279Y017809D01*
X032604Y018340D02*
X032604Y018801D01*
X032834Y018570D01*
X032527Y018570D01*
X035534Y015992D02*
X035534Y015838D01*
X035611Y015762D01*
X035764Y015762D02*
X035841Y015915D01*
X035841Y015992D01*
X035764Y016068D01*
X035611Y016068D01*
X035534Y015992D01*
X035764Y015762D02*
X035995Y015762D01*
X035995Y016068D01*
X035918Y015608D02*
X035995Y015531D01*
X035995Y015378D01*
X035918Y015301D01*
X035918Y015608D02*
X035841Y015608D01*
X035534Y015301D01*
X035534Y015608D01*
X035534Y015148D02*
X035534Y014841D01*
X035534Y014994D02*
X035995Y014994D01*
X035841Y014841D01*
X035764Y014687D02*
X035688Y014611D01*
X035688Y014380D01*
X035534Y014380D02*
X035995Y014380D01*
X035995Y014611D01*
X035918Y014687D01*
X035764Y014687D01*
X035688Y014534D02*
X035534Y014687D01*
X034350Y014506D02*
X034350Y014045D01*
X034350Y014199D02*
X034120Y014199D01*
X034043Y014276D01*
X034043Y014429D01*
X034120Y014506D01*
X034350Y014506D01*
X034196Y014199D02*
X034043Y014045D01*
X033889Y014045D02*
X033583Y014045D01*
X033736Y014045D02*
X033736Y014506D01*
X033889Y014352D01*
X033429Y014429D02*
X033352Y014506D01*
X033199Y014506D01*
X033122Y014429D01*
X033122Y014352D01*
X033429Y014045D01*
X033122Y014045D01*
X032969Y014122D02*
X032892Y014045D01*
X032739Y014045D01*
X032662Y014122D01*
X032662Y014199D01*
X032739Y014276D01*
X032815Y014276D01*
X032739Y014276D02*
X032662Y014352D01*
X032662Y014429D01*
X032739Y014506D01*
X032892Y014506D01*
X032969Y014429D01*
X032003Y014104D02*
X031542Y014104D01*
X031542Y013951D02*
X031542Y014258D01*
X031849Y013951D02*
X032003Y014104D01*
X031542Y013797D02*
X031542Y013490D01*
X031542Y013337D02*
X031542Y013030D01*
X031542Y013183D02*
X032003Y013183D01*
X031849Y013030D01*
X031773Y012876D02*
X031696Y012800D01*
X031696Y012570D01*
X031696Y012723D02*
X031542Y012876D01*
X031773Y012876D02*
X031926Y012876D01*
X032003Y012800D01*
X032003Y012570D01*
X031542Y012570D01*
X031501Y011994D02*
X031425Y011917D01*
X031501Y011994D02*
X031655Y011994D01*
X031731Y011917D01*
X031731Y011610D01*
X031655Y011534D01*
X031501Y011534D01*
X031425Y011610D01*
X031271Y011534D02*
X030964Y011534D01*
X030811Y011534D02*
X030504Y011534D01*
X030657Y011534D02*
X030657Y011994D01*
X030811Y011841D01*
X031118Y011994D02*
X031118Y011534D01*
X031271Y011841D02*
X031118Y011994D01*
X030350Y011917D02*
X030350Y011841D01*
X030274Y011764D01*
X030120Y011764D01*
X030044Y011687D01*
X030044Y011610D01*
X030120Y011534D01*
X030274Y011534D01*
X030350Y011610D01*
X030350Y011687D01*
X030274Y011764D01*
X030120Y011764D02*
X030044Y011841D01*
X030044Y011917D01*
X030120Y011994D01*
X030274Y011994D01*
X030350Y011917D01*
X030483Y010738D02*
X030637Y010738D01*
X030713Y010661D01*
X030713Y010585D01*
X030637Y010508D01*
X030406Y010508D01*
X030406Y010661D02*
X030483Y010738D01*
X030406Y010661D02*
X030406Y010354D01*
X030483Y010278D01*
X030637Y010278D01*
X030713Y010354D01*
X030658Y010311D02*
X030658Y010004D01*
X030965Y010311D01*
X031041Y010311D01*
X031118Y010235D01*
X031118Y010081D01*
X031041Y010004D01*
X031041Y009851D02*
X031118Y009774D01*
X031118Y009621D01*
X031041Y009544D01*
X031041Y009851D02*
X030965Y009851D01*
X030658Y009544D01*
X030658Y009851D01*
X030867Y010278D02*
X031174Y010278D01*
X031327Y010278D02*
X031634Y010278D01*
X031481Y010278D02*
X031481Y010738D01*
X031634Y010585D01*
X031788Y010661D02*
X031864Y010738D01*
X032018Y010738D01*
X032094Y010661D01*
X032094Y010354D01*
X032018Y010278D01*
X031864Y010278D01*
X031788Y010354D01*
X031174Y010585D02*
X031020Y010738D01*
X031020Y010278D01*
X030658Y009391D02*
X030658Y009084D01*
X030658Y009237D02*
X031118Y009237D01*
X030965Y009084D01*
X031041Y008930D02*
X031118Y008854D01*
X031118Y008700D01*
X031041Y008623D01*
X030735Y008623D01*
X030658Y008700D01*
X030658Y008854D01*
X030735Y008930D01*
X030561Y008502D02*
X030408Y008502D01*
X030331Y008425D01*
X030638Y008118D01*
X030561Y008041D01*
X030408Y008041D01*
X030331Y008118D01*
X030331Y008425D01*
X030178Y008425D02*
X030178Y008348D01*
X030101Y008272D01*
X029871Y008272D01*
X029871Y008425D02*
X029947Y008502D01*
X030101Y008502D01*
X030178Y008425D01*
X030178Y008118D02*
X030101Y008041D01*
X029947Y008041D01*
X029871Y008118D01*
X029871Y008425D01*
X030561Y008502D02*
X030638Y008425D01*
X030638Y008118D01*
X030791Y008041D02*
X031098Y008041D01*
X030945Y008041D02*
X030945Y008502D01*
X031098Y008348D01*
X031252Y008272D02*
X031328Y008195D01*
X031559Y008195D01*
X031559Y008041D02*
X031559Y008502D01*
X031328Y008502D01*
X031252Y008425D01*
X031252Y008272D01*
X031405Y008195D02*
X031252Y008041D01*
X030707Y007487D02*
X030477Y007487D01*
X030400Y007411D01*
X030400Y007257D01*
X030477Y007180D01*
X030707Y007180D01*
X030707Y007027D02*
X030707Y007487D01*
X030553Y007180D02*
X030400Y007027D01*
X030246Y007027D02*
X029940Y007027D01*
X030093Y007027D02*
X030093Y007487D01*
X030246Y007334D01*
X029786Y007334D02*
X029633Y007487D01*
X029633Y007027D01*
X029786Y007027D02*
X029479Y007027D01*
X029326Y007104D02*
X029019Y007411D01*
X029019Y007104D01*
X029096Y007027D01*
X029249Y007027D01*
X029326Y007104D01*
X029326Y007411D01*
X029249Y007487D01*
X029096Y007487D01*
X029019Y007411D01*
X029226Y006225D02*
X029149Y006148D01*
X029456Y005841D01*
X029379Y005765D01*
X029226Y005765D01*
X029149Y005841D01*
X029149Y006148D01*
X029226Y006225D02*
X029379Y006225D01*
X029456Y006148D01*
X029456Y005841D01*
X029610Y005765D02*
X029916Y005765D01*
X029610Y006072D01*
X029610Y006148D01*
X029686Y006225D01*
X029840Y006225D01*
X029916Y006148D01*
X030223Y006225D02*
X030223Y005765D01*
X030186Y005622D02*
X029879Y005315D01*
X029802Y005315D01*
X029802Y005161D02*
X029802Y004854D01*
X029802Y004701D02*
X029802Y004394D01*
X029802Y004547D02*
X030263Y004547D01*
X030109Y004394D01*
X030186Y004241D02*
X030263Y004164D01*
X030263Y004010D01*
X030186Y003934D01*
X029879Y003934D01*
X029802Y004010D01*
X029802Y004164D01*
X029879Y004241D01*
X030109Y004854D02*
X030263Y005008D01*
X029802Y005008D01*
X030263Y005315D02*
X030263Y005622D01*
X030186Y005622D01*
X030070Y005765D02*
X030377Y005765D01*
X030530Y005841D02*
X030607Y005765D01*
X030760Y005765D01*
X030837Y005841D01*
X030837Y006148D01*
X030760Y006225D01*
X030607Y006225D01*
X030530Y006148D01*
X030377Y006072D02*
X030223Y006225D01*
X032134Y006773D02*
X032441Y006773D01*
X032134Y007080D01*
X032134Y007157D01*
X032211Y007234D01*
X032365Y007234D01*
X032441Y007157D01*
X032748Y007234D02*
X032748Y006773D01*
X032595Y006773D02*
X032902Y006773D01*
X033055Y006773D02*
X033362Y006773D01*
X033209Y006773D02*
X033209Y007234D01*
X033362Y007080D01*
X033516Y007004D02*
X033592Y006927D01*
X033822Y006927D01*
X033669Y006927D02*
X033516Y006773D01*
X033516Y007004D02*
X033516Y007157D01*
X033592Y007234D01*
X033822Y007234D01*
X033822Y006773D01*
X032902Y007080D02*
X032748Y007234D01*
X033371Y007901D02*
X033524Y007901D01*
X033601Y007978D01*
X033294Y008285D01*
X033294Y007978D01*
X033371Y007901D01*
X033601Y007978D02*
X033601Y008285D01*
X033524Y008362D01*
X033371Y008362D01*
X033294Y008285D01*
X033755Y008285D02*
X033831Y008362D01*
X033985Y008362D01*
X034062Y008285D01*
X033755Y008285D02*
X033755Y008208D01*
X034062Y007901D01*
X033755Y007901D01*
X034215Y007901D02*
X034522Y007901D01*
X034675Y007901D02*
X034829Y008055D01*
X034752Y008055D02*
X034982Y008055D01*
X034982Y007901D02*
X034982Y008362D01*
X034752Y008362D01*
X034675Y008285D01*
X034675Y008131D01*
X034752Y008055D01*
X034522Y008208D02*
X034368Y008362D01*
X034368Y007901D01*
X035440Y007915D02*
X035440Y007609D01*
X035440Y007762D02*
X035901Y007762D01*
X035747Y007609D01*
X035824Y007455D02*
X035901Y007378D01*
X035901Y007225D01*
X035824Y007148D01*
X035517Y007148D01*
X035440Y007225D01*
X035440Y007378D01*
X035517Y007455D01*
X035440Y008069D02*
X035747Y008376D01*
X035824Y008376D01*
X035901Y008299D01*
X035901Y008146D01*
X035824Y008069D01*
X035440Y008069D02*
X035440Y008376D01*
X035517Y008529D02*
X035440Y008606D01*
X035440Y008759D01*
X035517Y008836D01*
X035594Y008836D01*
X035670Y008759D01*
X035670Y008529D01*
X035517Y008529D01*
X035670Y008529D02*
X035824Y008683D01*
X035901Y008836D01*
X035653Y004741D02*
X035730Y004664D01*
X035730Y004358D01*
X035653Y004281D01*
X035500Y004281D01*
X035423Y004358D01*
X035270Y004281D02*
X034963Y004281D01*
X035116Y004281D02*
X035116Y004741D01*
X035270Y004588D01*
X035423Y004664D02*
X035500Y004741D01*
X035653Y004741D01*
X034809Y004664D02*
X034732Y004741D01*
X034579Y004741D01*
X034502Y004664D01*
X034502Y004588D01*
X034809Y004281D01*
X034502Y004281D01*
X034349Y004281D02*
X034349Y004358D01*
X034042Y004664D01*
X034042Y004741D01*
X034349Y004741D01*
X032678Y001906D02*
X032448Y001906D01*
X032371Y001829D01*
X032371Y001676D01*
X032448Y001599D01*
X032678Y001599D01*
X032525Y001599D02*
X032371Y001445D01*
X032218Y001445D02*
X031911Y001445D01*
X031758Y001445D02*
X031451Y001445D01*
X031604Y001445D02*
X031604Y001906D01*
X031758Y001752D01*
X032065Y001906D02*
X032065Y001445D01*
X032218Y001752D02*
X032065Y001906D01*
X032678Y001906D02*
X032678Y001445D01*
X031297Y001522D02*
X031221Y001445D01*
X031067Y001445D01*
X030990Y001522D01*
X030990Y001599D01*
X031067Y001676D01*
X031144Y001676D01*
X031067Y001676D02*
X030990Y001752D01*
X030990Y001829D01*
X031067Y001906D01*
X031221Y001906D01*
X031297Y001829D01*
X027780Y004339D02*
X027703Y004263D01*
X027396Y004263D01*
X027320Y004339D01*
X027320Y004493D01*
X027396Y004570D01*
X027320Y004723D02*
X027320Y005030D01*
X027320Y005183D02*
X027320Y005490D01*
X027320Y005337D02*
X027780Y005337D01*
X027627Y005183D01*
X027780Y004877D02*
X027320Y004877D01*
X027627Y004723D02*
X027780Y004877D01*
X027703Y004570D02*
X027780Y004493D01*
X027780Y004339D01*
X027780Y005644D02*
X027550Y005644D01*
X027627Y005797D01*
X027627Y005874D01*
X027550Y005951D01*
X027396Y005951D01*
X027320Y005874D01*
X027320Y005721D01*
X027396Y005644D01*
X027780Y005644D02*
X027780Y005951D01*
X025569Y006484D02*
X025492Y006407D01*
X025339Y006407D01*
X025262Y006484D01*
X025108Y006407D02*
X024801Y006407D01*
X024955Y006407D02*
X024955Y006868D01*
X025108Y006714D01*
X025262Y006791D02*
X025339Y006868D01*
X025492Y006868D01*
X025569Y006791D01*
X025569Y006484D01*
X024648Y006484D02*
X024341Y006791D01*
X024341Y006484D01*
X024418Y006407D01*
X024571Y006407D01*
X024648Y006484D01*
X024648Y006791D01*
X024571Y006868D01*
X024418Y006868D01*
X024341Y006791D01*
X024188Y006638D02*
X024188Y006484D01*
X024111Y006407D01*
X023957Y006407D01*
X023881Y006484D01*
X023881Y006561D01*
X023957Y006638D01*
X024188Y006638D01*
X024034Y006791D01*
X023881Y006868D01*
X024341Y007346D02*
X024802Y007346D01*
X024802Y007576D01*
X024725Y007653D01*
X024571Y007653D01*
X024495Y007576D01*
X024495Y007346D01*
X024495Y007499D02*
X024341Y007653D01*
X024341Y007806D02*
X024341Y008113D01*
X024341Y007959D02*
X024802Y007959D01*
X024648Y007806D01*
X024725Y008266D02*
X024418Y008266D01*
X024725Y008573D01*
X024418Y008573D01*
X024341Y008496D01*
X024341Y008343D01*
X024418Y008266D01*
X024725Y008266D02*
X024802Y008343D01*
X024802Y008496D01*
X024725Y008573D01*
X024802Y008727D02*
X024802Y009034D01*
X024725Y009034D01*
X024418Y008727D01*
X024341Y008727D01*
X023330Y009765D02*
X023176Y009765D01*
X023100Y009842D01*
X022946Y009765D02*
X022639Y009765D01*
X022793Y009765D02*
X022793Y010225D01*
X022946Y010072D01*
X023100Y010149D02*
X023176Y010225D01*
X023330Y010225D01*
X023406Y010149D01*
X023406Y009842D01*
X023330Y009765D01*
X022486Y009842D02*
X022486Y010149D01*
X022409Y010225D01*
X022256Y010225D01*
X022179Y010149D01*
X022486Y009842D01*
X022409Y009765D01*
X022256Y009765D01*
X022179Y009842D01*
X022179Y010149D01*
X022025Y010225D02*
X022025Y009995D01*
X021872Y010072D01*
X021795Y010072D01*
X021719Y009995D01*
X021719Y009842D01*
X021795Y009765D01*
X021949Y009765D01*
X022025Y009842D01*
X022025Y010225D02*
X021719Y010225D01*
X020939Y011066D02*
X020632Y011066D01*
X020555Y011143D01*
X020555Y011296D01*
X020632Y011373D01*
X020555Y011526D02*
X020555Y011833D01*
X020555Y011680D02*
X021015Y011680D01*
X020862Y011526D01*
X020939Y011373D02*
X021015Y011296D01*
X021015Y011143D01*
X020939Y011066D01*
X020939Y011987D02*
X020632Y011987D01*
X020939Y012294D01*
X020632Y012294D01*
X020555Y012217D01*
X020555Y012063D01*
X020632Y011987D01*
X020939Y011987D02*
X021015Y012063D01*
X021015Y012217D01*
X020939Y012294D01*
X020939Y012447D02*
X021015Y012524D01*
X021015Y012677D01*
X020939Y012754D01*
X020862Y012754D01*
X020555Y012447D01*
X020555Y012754D01*
X020549Y013754D02*
X020243Y013754D01*
X020396Y013754D02*
X020396Y014214D01*
X020549Y014061D01*
X020703Y013754D02*
X021010Y013754D01*
X020856Y013754D02*
X020856Y014214D01*
X021010Y014061D01*
X021163Y014138D02*
X021470Y013831D01*
X021394Y013754D01*
X021240Y013754D01*
X021163Y013831D01*
X021163Y014138D01*
X021240Y014214D01*
X021394Y014214D01*
X021470Y014138D01*
X021470Y013831D01*
X021624Y013754D02*
X021931Y013754D01*
X021624Y014061D01*
X021624Y014138D01*
X021700Y014214D01*
X021854Y014214D01*
X021931Y014138D01*
X022084Y014214D02*
X022391Y013754D01*
X022328Y013629D02*
X022175Y013629D01*
X022098Y013552D01*
X022405Y013245D01*
X022328Y013169D01*
X022175Y013169D01*
X022098Y013245D01*
X022098Y013552D01*
X022328Y013629D02*
X022405Y013552D01*
X022405Y013245D01*
X022558Y013092D02*
X022865Y013092D01*
X022832Y012801D02*
X022832Y012341D01*
X022985Y012341D02*
X022679Y012341D01*
X022525Y012417D02*
X022448Y012341D01*
X022295Y012341D01*
X022218Y012417D01*
X022218Y012724D01*
X022525Y012417D01*
X022525Y012724D01*
X022448Y012801D01*
X022295Y012801D01*
X022218Y012724D01*
X022065Y012724D02*
X022065Y012648D01*
X021988Y012571D01*
X021758Y012571D01*
X021758Y012724D02*
X021758Y012417D01*
X021835Y012341D01*
X021988Y012341D01*
X022065Y012417D01*
X022065Y012724D02*
X021988Y012801D01*
X021835Y012801D01*
X021758Y012724D01*
X022832Y012801D02*
X022985Y012648D01*
X023139Y012724D02*
X023216Y012801D01*
X023369Y012801D01*
X023446Y012724D01*
X023446Y012417D01*
X023369Y012341D01*
X023216Y012341D01*
X023139Y012417D01*
X023172Y013169D02*
X023019Y013476D01*
X023005Y013754D02*
X023312Y013754D01*
X023005Y014061D01*
X023005Y014138D01*
X023081Y014214D01*
X023235Y014214D01*
X023312Y014138D01*
X023465Y014214D02*
X023772Y013754D01*
X023925Y013831D02*
X024002Y013754D01*
X024156Y013754D01*
X024232Y013831D01*
X024232Y013984D02*
X024079Y014061D01*
X024002Y014061D01*
X023925Y013984D01*
X023925Y013831D01*
X024016Y013629D02*
X023939Y013552D01*
X023939Y013399D01*
X024016Y013322D01*
X024246Y013322D01*
X024093Y013322D02*
X023939Y013169D01*
X023786Y013245D02*
X023786Y013399D01*
X023709Y013476D01*
X023556Y013476D01*
X023479Y013399D01*
X023479Y013322D01*
X023786Y013322D01*
X023786Y013245D02*
X023709Y013169D01*
X023556Y013169D01*
X023326Y013476D02*
X023172Y013169D01*
X022851Y013754D02*
X022544Y013754D01*
X022698Y013754D02*
X022698Y014214D01*
X022851Y014061D01*
X023094Y014441D02*
X023094Y014901D01*
X022864Y014901D01*
X022787Y014825D01*
X022787Y014671D01*
X022864Y014595D01*
X023094Y014595D01*
X023247Y014364D02*
X023554Y014364D01*
X023707Y014518D02*
X023707Y014595D01*
X023784Y014671D01*
X024014Y014671D01*
X024014Y014518D01*
X023938Y014441D01*
X023784Y014441D01*
X023707Y014518D01*
X023861Y014825D02*
X024014Y014671D01*
X023861Y014825D02*
X023707Y014901D01*
X024168Y014901D02*
X024475Y014901D01*
X024628Y014901D02*
X024935Y014901D01*
X024935Y014441D01*
X024628Y014441D01*
X024616Y014214D02*
X024463Y014214D01*
X024386Y014138D01*
X024693Y013831D01*
X024616Y013754D01*
X024463Y013754D01*
X024386Y013831D01*
X024386Y014138D01*
X024232Y014214D02*
X024232Y013984D01*
X024232Y014214D02*
X023925Y014214D01*
X024321Y014441D02*
X024321Y014901D01*
X024782Y014671D02*
X024935Y014671D01*
X025089Y014595D02*
X025089Y014901D01*
X025395Y014901D02*
X025395Y014595D01*
X025242Y014441D01*
X025089Y014595D01*
X024693Y014138D02*
X024616Y014214D01*
X024693Y014138D02*
X024693Y013831D01*
X024246Y013629D02*
X024246Y013169D01*
X024246Y013629D02*
X024016Y013629D01*
X022633Y014518D02*
X022633Y014825D01*
X022557Y014901D01*
X022403Y014901D01*
X022326Y014825D01*
X022326Y014518D01*
X022403Y014441D01*
X022557Y014441D01*
X022633Y014518D01*
X022173Y014441D02*
X022173Y014901D01*
X021943Y014901D01*
X021866Y014825D01*
X021866Y014518D01*
X021943Y014441D01*
X022173Y014441D01*
X021713Y014364D02*
X021406Y014364D01*
X021252Y014441D02*
X021252Y014748D01*
X021176Y014748D01*
X021099Y014671D01*
X021022Y014748D01*
X020945Y014671D01*
X020945Y014441D01*
X020792Y014441D02*
X020792Y014748D01*
X020715Y014748D01*
X020638Y014671D01*
X020562Y014748D01*
X020485Y014671D01*
X020485Y014441D01*
X020638Y014441D02*
X020638Y014671D01*
X021099Y014671D02*
X021099Y014441D01*
X021153Y015914D02*
X021307Y015914D01*
X021384Y015991D01*
X021077Y016298D01*
X021077Y015991D01*
X021153Y015914D01*
X021384Y015991D02*
X021384Y016298D01*
X021307Y016375D01*
X021153Y016375D01*
X021077Y016298D01*
X020923Y016144D02*
X020616Y016144D01*
X020693Y015914D02*
X020693Y016375D01*
X020923Y016144D01*
X021537Y015914D02*
X021844Y015914D01*
X021691Y015914D02*
X021691Y016375D01*
X021844Y016221D01*
X021997Y016298D02*
X022074Y016375D01*
X022228Y016375D01*
X022304Y016298D01*
X022304Y015991D01*
X022228Y015914D01*
X022074Y015914D01*
X021997Y015991D01*
X019506Y019726D02*
X019046Y019726D01*
X019199Y019726D02*
X019199Y019956D01*
X019276Y020033D01*
X019430Y020033D01*
X019506Y019956D01*
X019506Y019726D01*
X019199Y019879D02*
X019046Y020033D01*
X019046Y020186D02*
X019046Y020493D01*
X019046Y020340D02*
X019506Y020340D01*
X019353Y020186D01*
X019430Y020646D02*
X019123Y020646D01*
X019430Y020953D01*
X019123Y020953D01*
X019046Y020877D01*
X019046Y020723D01*
X019123Y020646D01*
X019430Y020646D02*
X019506Y020723D01*
X019506Y020877D01*
X019430Y020953D01*
X019276Y021107D02*
X019276Y021414D01*
X019046Y021337D02*
X019506Y021337D01*
X019276Y021107D01*
X024853Y026716D02*
X024776Y026793D01*
X024776Y026946D01*
X024853Y027023D01*
X024776Y027176D02*
X024776Y027483D01*
X024776Y027330D02*
X025236Y027330D01*
X025083Y027176D01*
X025160Y027023D02*
X025236Y026946D01*
X025236Y026793D01*
X025160Y026716D01*
X024853Y026716D01*
X024853Y027637D02*
X025160Y027944D01*
X024853Y027944D01*
X024776Y027867D01*
X024776Y027713D01*
X024853Y027637D01*
X025160Y027637D01*
X025236Y027713D01*
X025236Y027867D01*
X025160Y027944D01*
X025160Y028097D02*
X025083Y028097D01*
X025006Y028174D01*
X025006Y028327D01*
X024929Y028404D01*
X024853Y028404D01*
X024776Y028327D01*
X024776Y028174D01*
X024853Y028097D01*
X024929Y028097D01*
X025006Y028174D01*
X025006Y028327D02*
X025083Y028404D01*
X025160Y028404D01*
X025236Y028327D01*
X025236Y028174D01*
X025160Y028097D01*
X025813Y029194D02*
X025813Y029655D01*
X026043Y029424D01*
X025736Y029424D01*
X026196Y029194D02*
X026503Y029194D01*
X026350Y029194D02*
X026350Y029655D01*
X026503Y029501D01*
X026657Y029194D02*
X026963Y029194D01*
X026810Y029194D02*
X026810Y029655D01*
X026963Y029501D01*
X027117Y029578D02*
X027194Y029655D01*
X027347Y029655D01*
X027424Y029578D01*
X027424Y029271D01*
X027347Y029194D01*
X027194Y029194D01*
X027117Y029271D01*
X027208Y015537D02*
X027208Y015230D01*
X027515Y015537D01*
X027592Y015537D01*
X027669Y015460D01*
X027669Y015307D01*
X027592Y015230D01*
X027669Y014923D02*
X027208Y014923D01*
X027208Y014770D02*
X027208Y015077D01*
X027515Y014770D02*
X027669Y014923D01*
X027669Y014463D02*
X027208Y014463D01*
X027208Y014310D02*
X027208Y014616D01*
X027013Y014323D02*
X026936Y014323D01*
X026860Y014246D01*
X026783Y014323D01*
X026706Y014323D01*
X026630Y014246D01*
X026630Y014093D01*
X026706Y014016D01*
X026630Y013863D02*
X026630Y013556D01*
X026630Y013709D02*
X027090Y013709D01*
X026936Y013556D01*
X026630Y013402D02*
X026630Y013096D01*
X026630Y013249D02*
X027090Y013249D01*
X026936Y013096D01*
X027013Y012942D02*
X027090Y012865D01*
X027090Y012712D01*
X027013Y012635D01*
X026706Y012635D01*
X026630Y012712D01*
X026630Y012865D01*
X026706Y012942D01*
X027285Y013849D02*
X027208Y013926D01*
X027208Y014079D01*
X027285Y014156D01*
X027090Y014093D02*
X027090Y014246D01*
X027013Y014323D01*
X026860Y014246D02*
X026860Y014170D01*
X027013Y014016D02*
X027090Y014093D01*
X027285Y013849D02*
X027592Y013849D01*
X027669Y013926D01*
X027669Y014079D01*
X027592Y014156D01*
X027515Y014310D02*
X027669Y014463D01*
X031542Y013644D02*
X032003Y013644D01*
X031849Y013490D01*
X026457Y009932D02*
X025997Y009932D01*
X025997Y009779D02*
X025997Y010086D01*
X026304Y009779D02*
X026457Y009932D01*
X026457Y009472D02*
X025997Y009472D01*
X025997Y009319D02*
X025997Y009626D01*
X026304Y009319D02*
X026457Y009472D01*
X025997Y009165D02*
X025997Y008858D01*
X025997Y009012D02*
X026457Y009012D01*
X026304Y008858D01*
X026380Y008705D02*
X026457Y008628D01*
X026457Y008475D01*
X026380Y008398D01*
X026074Y008398D01*
X025997Y008475D01*
X025997Y008628D01*
X026074Y008705D01*
X024119Y005612D02*
X024196Y005535D01*
X024196Y005228D01*
X024119Y005151D01*
X023966Y005151D01*
X023889Y005228D01*
X023735Y005151D02*
X023429Y005151D01*
X023582Y005151D02*
X023582Y005612D01*
X023735Y005458D01*
X023889Y005535D02*
X023966Y005612D01*
X024119Y005612D01*
X023275Y005535D02*
X023198Y005612D01*
X023045Y005612D01*
X022968Y005535D01*
X023275Y005228D01*
X023198Y005151D01*
X023045Y005151D01*
X022968Y005228D01*
X022968Y005535D01*
X022815Y005612D02*
X022508Y005612D01*
X022508Y005535D01*
X022815Y005228D01*
X022815Y005151D01*
X023275Y005228D02*
X023275Y005535D01*
X023216Y004615D02*
X023140Y004538D01*
X023140Y004385D01*
X023216Y004308D01*
X023523Y004615D01*
X023216Y004615D01*
X023216Y004308D02*
X023523Y004308D01*
X023600Y004385D01*
X023600Y004538D01*
X023523Y004615D01*
X023523Y004155D02*
X023216Y004155D01*
X023140Y004078D01*
X023140Y003924D01*
X023216Y003848D01*
X023523Y004155D01*
X023600Y004078D01*
X023600Y003924D01*
X023523Y003848D01*
X023216Y003848D01*
X023140Y003694D02*
X023140Y003387D01*
X023140Y003234D02*
X023600Y003234D01*
X023447Y003080D01*
X023600Y002927D01*
X023140Y002927D01*
X023140Y002774D02*
X023293Y002620D01*
X023293Y002697D02*
X023293Y002467D01*
X023140Y002467D02*
X023600Y002467D01*
X023600Y002697D01*
X023523Y002774D01*
X023370Y002774D01*
X023293Y002697D01*
X023370Y002313D02*
X023370Y002006D01*
X023140Y002006D02*
X023600Y002006D01*
X023600Y001853D02*
X023600Y001546D01*
X023600Y001699D02*
X023140Y001699D01*
X023140Y002313D02*
X023600Y002313D01*
X023447Y003387D02*
X023600Y003541D01*
X023140Y003541D01*
X022217Y002970D02*
X022217Y002510D01*
X022217Y002663D02*
X021987Y002663D01*
X021910Y002740D01*
X021910Y002894D01*
X021987Y002970D01*
X022217Y002970D01*
X022063Y002663D02*
X021910Y002510D01*
X021756Y002510D02*
X021449Y002510D01*
X021603Y002510D02*
X021603Y002970D01*
X021756Y002817D01*
X021296Y002894D02*
X021296Y002587D01*
X020989Y002894D01*
X020989Y002587D01*
X021066Y002510D01*
X021219Y002510D01*
X021296Y002587D01*
X021296Y002894D02*
X021219Y002970D01*
X021066Y002970D01*
X020989Y002894D01*
X020836Y002740D02*
X020836Y002587D01*
X020759Y002510D01*
X020605Y002510D01*
X020529Y002587D01*
X020529Y002663D01*
X020605Y002740D01*
X020836Y002740D01*
X020682Y002894D01*
X020529Y002970D01*
X018645Y007044D02*
X018645Y007505D01*
X018415Y007505D01*
X018339Y007428D01*
X018339Y007274D01*
X018415Y007198D01*
X018645Y007198D01*
X018492Y007198D02*
X018339Y007044D01*
X018185Y007044D02*
X017878Y007044D01*
X018032Y007044D02*
X018032Y007505D01*
X018185Y007351D01*
X017725Y007428D02*
X017725Y007121D01*
X017418Y007428D01*
X017418Y007121D01*
X017495Y007044D01*
X017648Y007044D01*
X017725Y007121D01*
X017725Y007428D02*
X017648Y007505D01*
X017495Y007505D01*
X017418Y007428D01*
X017264Y007505D02*
X017264Y007274D01*
X017111Y007351D01*
X017034Y007351D01*
X016957Y007274D01*
X016957Y007121D01*
X017034Y007044D01*
X017188Y007044D01*
X017264Y007121D01*
X017264Y007505D02*
X016957Y007505D01*
X019155Y007624D02*
X019232Y007548D01*
X019385Y007548D01*
X019462Y007624D01*
X019615Y007624D02*
X019692Y007548D01*
X019846Y007548D01*
X019922Y007624D01*
X019615Y007931D01*
X019615Y007624D01*
X019615Y007931D02*
X019692Y008008D01*
X019846Y008008D01*
X019922Y007931D01*
X019922Y007624D01*
X020076Y007548D02*
X020383Y007548D01*
X020229Y007548D02*
X020229Y008008D01*
X020383Y007855D01*
X020536Y007931D02*
X020613Y008008D01*
X020766Y008008D01*
X020843Y007931D01*
X020843Y007624D01*
X020766Y007548D01*
X020613Y007548D01*
X020536Y007624D01*
X019462Y007931D02*
X019385Y008008D01*
X019232Y008008D01*
X019155Y007931D01*
X019155Y007855D01*
X019232Y007778D01*
X019155Y007701D01*
X019155Y007624D01*
X019232Y007778D02*
X019309Y007778D01*
X008624Y026994D02*
X008164Y026994D01*
X008317Y026994D02*
X008317Y027224D01*
X008394Y027301D01*
X008547Y027301D01*
X008624Y027224D01*
X008624Y026994D01*
X008317Y027147D02*
X008164Y027301D01*
X008164Y027454D02*
X008164Y027761D01*
X008164Y027608D02*
X008624Y027608D01*
X008471Y027454D01*
X008547Y027915D02*
X008240Y027915D01*
X008547Y028221D01*
X008240Y028221D01*
X008164Y028145D01*
X008164Y027991D01*
X008240Y027915D01*
X008547Y027915D02*
X008624Y027991D01*
X008624Y028145D01*
X008547Y028221D01*
X008547Y028375D02*
X008240Y028375D01*
X008547Y028682D01*
X008240Y028682D01*
X008164Y028605D01*
X008164Y028452D01*
X008240Y028375D01*
X008547Y028375D02*
X008624Y028452D01*
X008624Y028605D01*
X008547Y028682D01*
D12*
X003063Y016473D02*
X003065Y016515D01*
X003071Y016556D01*
X003081Y016597D01*
X003095Y016636D01*
X003113Y016674D01*
X003134Y016710D01*
X003158Y016744D01*
X003186Y016775D01*
X003217Y016804D01*
X003250Y016829D01*
X003286Y016851D01*
X003323Y016870D01*
X003362Y016885D01*
X003403Y016896D01*
X003444Y016903D01*
X003486Y016906D01*
X003527Y016905D01*
X003569Y016900D01*
X003610Y016891D01*
X003650Y016878D01*
X003688Y016861D01*
X003724Y016841D01*
X003759Y016817D01*
X003791Y016790D01*
X003820Y016760D01*
X003846Y016728D01*
X003869Y016693D01*
X003889Y016655D01*
X003904Y016617D01*
X003916Y016577D01*
X003924Y016536D01*
X003928Y016494D01*
X003928Y016452D01*
X003924Y016410D01*
X003916Y016369D01*
X003904Y016329D01*
X003889Y016291D01*
X003869Y016253D01*
X003846Y016218D01*
X003820Y016186D01*
X003791Y016156D01*
X003759Y016129D01*
X003724Y016105D01*
X003688Y016085D01*
X003650Y016068D01*
X003610Y016055D01*
X003569Y016046D01*
X003527Y016041D01*
X003486Y016040D01*
X003444Y016043D01*
X003403Y016050D01*
X003362Y016061D01*
X003323Y016076D01*
X003286Y016095D01*
X003250Y016117D01*
X003217Y016142D01*
X003186Y016171D01*
X003158Y016202D01*
X003134Y016236D01*
X003113Y016272D01*
X003095Y016310D01*
X003081Y016349D01*
X003071Y016390D01*
X003065Y016431D01*
X003063Y016473D01*
X003063Y010528D02*
X003065Y010570D01*
X003071Y010611D01*
X003081Y010652D01*
X003095Y010691D01*
X003113Y010729D01*
X003134Y010765D01*
X003158Y010799D01*
X003186Y010830D01*
X003217Y010859D01*
X003250Y010884D01*
X003286Y010906D01*
X003323Y010925D01*
X003362Y010940D01*
X003403Y010951D01*
X003444Y010958D01*
X003486Y010961D01*
X003527Y010960D01*
X003569Y010955D01*
X003610Y010946D01*
X003650Y010933D01*
X003688Y010916D01*
X003724Y010896D01*
X003759Y010872D01*
X003791Y010845D01*
X003820Y010815D01*
X003846Y010783D01*
X003869Y010748D01*
X003889Y010710D01*
X003904Y010672D01*
X003916Y010632D01*
X003924Y010591D01*
X003928Y010549D01*
X003928Y010507D01*
X003924Y010465D01*
X003916Y010424D01*
X003904Y010384D01*
X003889Y010346D01*
X003869Y010308D01*
X003846Y010273D01*
X003820Y010241D01*
X003791Y010211D01*
X003759Y010184D01*
X003724Y010160D01*
X003688Y010140D01*
X003650Y010123D01*
X003610Y010110D01*
X003569Y010101D01*
X003527Y010096D01*
X003486Y010095D01*
X003444Y010098D01*
X003403Y010105D01*
X003362Y010116D01*
X003323Y010131D01*
X003286Y010150D01*
X003250Y010172D01*
X003217Y010197D01*
X003186Y010226D01*
X003158Y010257D01*
X003134Y010291D01*
X003113Y010327D01*
X003095Y010365D01*
X003081Y010404D01*
X003071Y010445D01*
X003065Y010486D01*
X003063Y010528D01*
D13*
X006151Y009133D02*
X006151Y008833D01*
X006226Y008757D01*
X006376Y008757D01*
X006451Y008833D01*
X006151Y009133D01*
X006226Y009208D01*
X006376Y009208D01*
X006451Y009133D01*
X006451Y008833D01*
X006611Y008833D02*
X006686Y008757D01*
X006836Y008757D01*
X006912Y008833D01*
X006611Y009133D01*
X006611Y008833D01*
X006611Y009133D02*
X006686Y009208D01*
X006836Y009208D01*
X006912Y009133D01*
X006912Y008833D01*
X007072Y008757D02*
X007372Y008757D01*
X007222Y008757D02*
X007222Y009208D01*
X007372Y009058D01*
X007532Y009208D02*
X007532Y008757D01*
X007682Y008908D01*
X007832Y008757D01*
X007832Y009208D01*
X007992Y009133D02*
X008067Y009208D01*
X008218Y009208D01*
X008293Y009133D01*
X008293Y009058D01*
X008218Y008983D01*
X008067Y008983D01*
X007992Y008908D01*
X007992Y008833D01*
X008067Y008757D01*
X008218Y008757D01*
X008293Y008833D01*
X010091Y011464D02*
X010016Y011539D01*
X010016Y011689D01*
X010091Y011764D01*
X010392Y011764D01*
X010467Y011689D01*
X010467Y011539D01*
X010392Y011464D01*
X010091Y011464D01*
X010167Y011614D02*
X010016Y011764D01*
X010091Y011925D02*
X010016Y012000D01*
X010016Y012150D01*
X010091Y012225D01*
X010392Y012225D01*
X010467Y012150D01*
X010467Y012000D01*
X010392Y011925D01*
X010091Y011925D01*
X010167Y012075D02*
X010016Y012225D01*
X010016Y012385D02*
X010016Y012685D01*
X010016Y012535D02*
X010467Y012535D01*
X010317Y012385D01*
X010392Y012845D02*
X010091Y012845D01*
X010392Y013146D01*
X010091Y013146D01*
X010016Y013070D01*
X010016Y012920D01*
X010091Y012845D01*
X010392Y012845D02*
X010467Y012920D01*
X010467Y013070D01*
X010392Y013146D01*
X010392Y013306D02*
X010467Y013381D01*
X010467Y013531D01*
X010392Y013606D01*
X010091Y013306D01*
X010016Y013381D01*
X010016Y013531D01*
X010091Y013606D01*
X010392Y013606D01*
X010392Y013306D02*
X010091Y013306D01*
X012261Y015479D02*
X012186Y015554D01*
X012186Y015704D01*
X012261Y015779D01*
X012561Y015779D01*
X012636Y015704D01*
X012636Y015554D01*
X012561Y015479D01*
X012261Y015479D01*
X012336Y015629D02*
X012186Y015779D01*
X012186Y015940D02*
X012186Y016240D01*
X012186Y016090D02*
X012636Y016090D01*
X012486Y015940D01*
X012561Y016400D02*
X012261Y016400D01*
X012561Y016700D01*
X012261Y016700D01*
X012186Y016625D01*
X012186Y016475D01*
X012261Y016400D01*
X012561Y016400D02*
X012636Y016475D01*
X012636Y016625D01*
X012561Y016700D01*
X012561Y016860D02*
X012636Y016935D01*
X012636Y017085D01*
X012561Y017160D01*
X012261Y016860D01*
X012186Y016935D01*
X012186Y017085D01*
X012261Y017160D01*
X012561Y017160D01*
X012500Y017200D02*
X012650Y017200D01*
X012725Y017275D01*
X012425Y017575D01*
X012425Y017275D01*
X012500Y017200D01*
X012725Y017275D02*
X012725Y017575D01*
X012650Y017650D01*
X012500Y017650D01*
X012425Y017575D01*
X012885Y017575D02*
X013185Y017275D01*
X013110Y017200D01*
X012960Y017200D01*
X012885Y017275D01*
X012885Y017575D01*
X012960Y017650D01*
X013110Y017650D01*
X013185Y017575D01*
X013185Y017275D01*
X013345Y017200D02*
X013646Y017200D01*
X013496Y017200D02*
X013496Y017650D01*
X013646Y017500D01*
X013806Y017650D02*
X014106Y017200D01*
X013806Y017200D02*
X014106Y017650D01*
X012561Y016860D02*
X012261Y016860D01*
X014998Y014652D02*
X014998Y014351D01*
X014998Y014501D02*
X015448Y014501D01*
X015298Y014351D01*
X015373Y014191D02*
X015073Y014191D01*
X014998Y014116D01*
X014998Y013966D01*
X015073Y013891D01*
X015373Y014191D01*
X015448Y014116D01*
X015448Y013966D01*
X015373Y013891D01*
X015073Y013891D01*
X014998Y013731D02*
X014998Y013431D01*
X014998Y013581D02*
X015448Y013581D01*
X015298Y013431D01*
X015373Y013271D02*
X015073Y013271D01*
X014998Y013195D01*
X014998Y013045D01*
X015073Y012970D01*
X015373Y012970D01*
X015448Y013045D01*
X015448Y013195D01*
X015373Y013271D01*
X015148Y013120D02*
X014998Y013271D01*
X019179Y013719D02*
X019254Y013644D01*
X019404Y013644D01*
X019479Y013719D01*
X019479Y013869D02*
X019329Y013944D01*
X019254Y013944D01*
X019179Y013869D01*
X019179Y013719D01*
X019479Y013869D02*
X019479Y014094D01*
X019179Y014094D01*
X019639Y014019D02*
X019639Y013944D01*
X019714Y013869D01*
X019639Y013794D01*
X019639Y013719D01*
X019714Y013644D01*
X019864Y013644D01*
X019939Y013719D01*
X019789Y013869D02*
X019714Y013869D01*
X019639Y014019D02*
X019714Y014094D01*
X019864Y014094D01*
X019939Y014019D01*
X020099Y014019D02*
X020099Y013869D01*
X020174Y013794D01*
X020399Y013794D01*
X020399Y013644D02*
X020399Y014094D01*
X020174Y014094D01*
X020099Y014019D01*
X020200Y013211D02*
X020125Y013136D01*
X020125Y012985D01*
X020200Y012910D01*
X020425Y012910D01*
X020425Y012760D02*
X020425Y013211D01*
X020200Y013211D01*
X019965Y013136D02*
X019890Y013211D01*
X019740Y013211D01*
X019665Y013136D01*
X019665Y013061D01*
X019740Y012985D01*
X019665Y012910D01*
X019665Y012835D01*
X019740Y012760D01*
X019890Y012760D01*
X019965Y012835D01*
X019815Y012985D02*
X019740Y012985D01*
X019505Y012985D02*
X019205Y012985D01*
X019280Y012760D02*
X019280Y013211D01*
X019505Y012985D01*
X022436Y015279D02*
X022436Y015354D01*
X022511Y015429D01*
X022587Y015429D01*
X022511Y015429D02*
X022436Y015504D01*
X022436Y015579D01*
X022511Y015654D01*
X022662Y015654D01*
X022737Y015579D01*
X022897Y015579D02*
X022972Y015654D01*
X023122Y015654D01*
X023197Y015579D01*
X023357Y015579D02*
X023357Y015429D01*
X023432Y015354D01*
X023657Y015354D01*
X023657Y015204D02*
X023657Y015654D01*
X023432Y015654D01*
X023357Y015579D01*
X023197Y015279D02*
X023122Y015204D01*
X022972Y015204D01*
X022897Y015279D01*
X022897Y015354D01*
X022972Y015429D01*
X023047Y015429D01*
X022972Y015429D02*
X022897Y015504D01*
X022897Y015579D01*
X022737Y015279D02*
X022662Y015204D01*
X022511Y015204D01*
X022436Y015279D01*
X026005Y019745D02*
X026155Y019745D01*
X026230Y019820D01*
X026390Y019820D02*
X026465Y019745D01*
X026615Y019745D01*
X026690Y019820D01*
X026390Y020121D01*
X026390Y019820D01*
X026690Y019820D02*
X026690Y020121D01*
X026615Y020196D01*
X026465Y020196D01*
X026390Y020121D01*
X026230Y020121D02*
X026155Y020196D01*
X026005Y020196D01*
X025930Y020121D01*
X025930Y020046D01*
X026005Y019970D01*
X025930Y019895D01*
X025930Y019820D01*
X026005Y019745D01*
X026005Y019970D02*
X026080Y019970D01*
X026851Y019745D02*
X027151Y019745D01*
X027001Y019745D02*
X027001Y020196D01*
X027151Y020046D01*
X027311Y020121D02*
X027311Y019820D01*
X027386Y019745D01*
X027536Y019745D01*
X027611Y019820D01*
X027611Y020121D01*
X027536Y020196D01*
X027386Y020196D01*
X027311Y020121D01*
X027461Y019895D02*
X027311Y019745D01*
X031420Y015058D02*
X031420Y014983D01*
X031720Y014683D01*
X031720Y014608D01*
X031880Y014608D02*
X032180Y014608D01*
X032030Y014608D02*
X032030Y015058D01*
X032180Y014908D01*
X032340Y014608D02*
X032641Y014608D01*
X032491Y014608D02*
X032491Y015058D01*
X032641Y014908D01*
X032801Y014983D02*
X032801Y014833D01*
X032876Y014758D01*
X033101Y014758D01*
X032951Y014758D02*
X032801Y014608D01*
X033101Y014608D02*
X033101Y015058D01*
X032876Y015058D01*
X032801Y014983D01*
X031720Y015058D02*
X031420Y015058D01*
X032641Y011941D02*
X032566Y011866D01*
X032566Y011791D01*
X032641Y011716D01*
X032791Y011716D01*
X032866Y011791D01*
X032866Y011866D01*
X032791Y011941D01*
X032641Y011941D01*
X032641Y011716D02*
X032566Y011641D01*
X032566Y011566D01*
X032641Y011491D01*
X032791Y011491D01*
X032866Y011566D01*
X032866Y011641D01*
X032791Y011716D01*
X033026Y011491D02*
X033326Y011491D01*
X033176Y011491D02*
X033176Y011941D01*
X033326Y011791D01*
X033486Y011491D02*
X033787Y011491D01*
X033636Y011491D02*
X033636Y011941D01*
X033787Y011791D01*
X033947Y011866D02*
X033947Y011716D01*
X034022Y011641D01*
X034247Y011641D01*
X034097Y011641D02*
X033947Y011491D01*
X034247Y011491D02*
X034247Y011941D01*
X034022Y011941D01*
X033947Y011866D01*
X033565Y009387D02*
X033340Y009387D01*
X033265Y009312D01*
X033265Y009161D01*
X033340Y009086D01*
X033565Y009086D01*
X033565Y008936D02*
X033565Y009387D01*
X033415Y009086D02*
X033265Y008936D01*
X033105Y008936D02*
X032805Y008936D01*
X032955Y008936D02*
X032955Y009387D01*
X033105Y009236D01*
X032645Y009236D02*
X032494Y009387D01*
X032494Y008936D01*
X032344Y008936D02*
X032645Y008936D01*
X032184Y009011D02*
X032109Y008936D01*
X031959Y008936D01*
X031884Y009011D01*
X031884Y009312D01*
X031959Y009387D01*
X032109Y009387D01*
X032184Y009312D01*
X032184Y009236D01*
X032109Y009161D01*
X031884Y009161D01*
X021102Y005748D02*
X020652Y005748D01*
X020652Y005598D02*
X020652Y005898D01*
X020952Y005598D02*
X021102Y005748D01*
X021027Y005438D02*
X020727Y005438D01*
X020652Y005363D01*
X020652Y005213D01*
X020727Y005138D01*
X021027Y005438D01*
X021102Y005363D01*
X021102Y005213D01*
X021027Y005138D01*
X020727Y005138D01*
X020652Y004978D02*
X020652Y004677D01*
X020652Y004828D02*
X021102Y004828D01*
X020952Y004677D01*
X021102Y004517D02*
X020652Y004217D01*
X020652Y004517D02*
X021102Y004217D01*
X020042Y008221D02*
X020117Y008296D01*
X020117Y008446D01*
X020042Y008521D01*
X019741Y008521D01*
X019666Y008446D01*
X019666Y008296D01*
X019741Y008221D01*
X020042Y008221D01*
X019817Y008371D02*
X019666Y008521D01*
X019666Y008681D02*
X019666Y008981D01*
X019666Y008831D02*
X020117Y008831D01*
X019967Y008681D01*
X020042Y009141D02*
X020117Y009216D01*
X020117Y009367D01*
X020042Y009442D01*
X019741Y009141D01*
X019666Y009216D01*
X019666Y009367D01*
X019741Y009442D01*
X020042Y009442D01*
X020042Y009602D02*
X020117Y009677D01*
X020117Y009827D01*
X020042Y009902D01*
X019967Y009902D01*
X019666Y009602D01*
X019666Y009902D01*
X019741Y009141D02*
X020042Y009141D01*
X014569Y019496D02*
X014418Y019496D01*
X014494Y019496D02*
X014494Y019946D01*
X014569Y019946D02*
X014418Y019946D01*
X014262Y019871D02*
X014262Y019571D01*
X014187Y019496D01*
X014036Y019496D01*
X013961Y019571D01*
X013801Y019496D02*
X013501Y019496D01*
X013651Y019496D02*
X013651Y019946D01*
X013801Y019796D01*
X013961Y019871D02*
X014036Y019946D01*
X014187Y019946D01*
X014262Y019871D01*
X013341Y019871D02*
X013341Y019571D01*
X013041Y019871D01*
X013041Y019571D01*
X013116Y019496D01*
X013266Y019496D01*
X013341Y019571D01*
X013341Y019871D02*
X013266Y019946D01*
X013116Y019946D01*
X013041Y019871D01*
X012881Y019796D02*
X012730Y019946D01*
X012730Y019496D01*
X012580Y019496D02*
X012881Y019496D01*
X007675Y026310D02*
X007675Y026460D01*
X007675Y026385D02*
X007225Y026385D01*
X007225Y026310D02*
X007225Y026460D01*
X007300Y026617D02*
X007225Y026692D01*
X007225Y026842D01*
X007300Y026917D01*
X007225Y027078D02*
X007225Y027378D01*
X007225Y027228D02*
X007675Y027228D01*
X007525Y027078D01*
X007600Y026917D02*
X007675Y026842D01*
X007675Y026692D01*
X007600Y026617D01*
X007300Y026617D01*
X007300Y027538D02*
X007600Y027838D01*
X007300Y027838D01*
X007225Y027763D01*
X007225Y027613D01*
X007300Y027538D01*
X007600Y027538D01*
X007675Y027613D01*
X007675Y027763D01*
X007600Y027838D01*
X007600Y027998D02*
X007675Y028073D01*
X007675Y028223D01*
X007600Y028298D01*
X007300Y027998D01*
X007225Y028073D01*
X007225Y028223D01*
X007300Y028298D01*
X007600Y028298D01*
X007600Y027998D02*
X007300Y027998D01*
M02*
